<?xml version="1.0" encoding="UTF-8" standalone="no"?>
<!-- Copyright 2017 mathsisfun.com -->

<svg
   xmlns:dc="http://purl.org/dc/elements/1.1/"
   xmlns:cc="http://creativecommons.org/ns#"
   xmlns:rdf="http://www.w3.org/1999/02/22-rdf-syntax-ns#"
   xmlns:svg="http://www.w3.org/2000/svg"
   xmlns="http://www.w3.org/2000/svg"
   xmlns:sodipodi="http://sodipodi.sourceforge.net/DTD/sodipodi-0.dtd"
   xmlns:inkscape="http://www.inkscape.org/namespaces/inkscape"
   width="296"
   height="62.7"
   version="1.1"
   id="svg18"
   sodipodi:docname="quadratic-equation-reason.svg"
   inkscape:version="0.92.1 r15371">
  <metadata
     id="metadata22">
    <rdf:RDF>
      <cc:Work
         rdf:about="">
        <dc:format>image/svg+xml</dc:format>
        <dc:type
           rdf:resource="http://purl.org/dc/dcmitype/StillImage" />
      </cc:Work>
    </rdf:RDF>
  </metadata>
  <sodipodi:namedview
     pagecolor="#ffffff"
     bordercolor="#666666"
     borderopacity="1"
     objecttolerance="10"
     gridtolerance="10"
     guidetolerance="10"
     inkscape:pageopacity="0"
     inkscape:pageshadow="2"
     inkscape:window-width="640"
     inkscape:window-height="480"
     id="namedview20"
     showgrid="false"
     inkscape:current-layer="svg18" />
  <defs
     id="defs2" />
  <circle
     id="circle4"
     style="overflow:visible;opacity:0.33;fill:#fdca01;stroke-width:5.1"
     r="13.6785"
     cy="45.65"
     cx="33.4799" />
  <text
     id="text6"
     style="font-size:23.899999px;font-family:'Comic Sans MS';overflow:visible;fill:#5c3566;stroke-width:1px;-inkscape-font-specification:'Comic Sans MS, Normal';font-weight:normal;font-style:normal;font-stretch:normal;font-variant:normal;text-anchor:start;text-align:start;writing-mode:lr;font-variant-ligatures:normal;font-variant-caps:normal;font-variant-numeric:normal;font-feature-settings:normal;"
     y="61.95"
     x="-1.41995">
    <tspan
       sodipodi:role="line"
       id="tspan835">5x  + 3x + 3 = 0</tspan>
  </text>
  <text
     id="text8"
     style="font-size:19.1px;font-family:'Comic Sans MS';overflow:visible;fill:#5c3566;stroke-width:1px"
     y="52.45"
     x="27.68">2</text>
  <text
     id="text10"
     style="font-style:italic;font-size:19.1px;font-family:'Comic Sans MS';overflow:visible;fill:#fdca01;stroke-width:5.1"
     y="14.95"
     x="83.68">this makes it Quadratic</text>
  <path
     inkscape:connector-curvature="0"
     id="path12"
     d="m 41.28,33.45 c 4.9,-6 10.5,-11.5 17,-15.9 6,-3.8 12.7,-6.3 19.4,-8.5 0.9,0 3.2,-1.4 3.3,-0.7 -0.4,1.4 -0.9,2.8 -1.3,4.2 -5.4,1.5 -10.7,3.5 -15.8,5.8 -5.8,2.7 -10.7,6.8 -15.2,11.3 0.8,-0.8 2.3,-2.3 2.7,-2.7 -1.9,1.8 -3.6,3.9 -5.4,5.8 -1.6,0.2 -3.1,0.4 -4.7,0.6 z"
     style="overflow:visible;fill:#fdca01;stroke-width:5.1" />
  <path
     inkscape:connector-curvature="0"
     id="path14"
     d="m 47.18,19.75 c 0,0.2 0,0.3 0,0.5 0,0.2 0,0.3 0,0.5 0,0.2 0,0.3 0,0.5 0,0.2 0,0.4 0,0.6 0,0.2 0,0.4 0,0.5 0,0.2 0,0.4 0,0.5 0,0.2 0,0.4 0,0.6 0,0.2 0,0.3 0,0.5 0,0.2 0,0.3 0,0.5 0,0.2 0,0.3 0,0.5 0,0.2 0,0.3 0,0.5 0,0.2 0,0.4 0,0.5 0,0.2 0,0.3 -0.1,0.5 0,0.2 0,0.4 -0.1,0.6 0,0.2 0,0.3 -0.1,0.5 0,0.2 -0.1,0.3 -0.1,0.5 0,0.2 -0.1,0.4 -0.2,0.5 0,0.2 -0.1,0.3 -0.2,0.5 0,0.2 -0.1,0.3 -0.2,0.5 0,0.2 -0.1,0.3 -0.2,0.5 0,0.2 -0.1,0.3 -0.2,0.5 0,0.1 -0.1,0.3 -0.2,0.4 0,0.1 -0.1,0.3 -0.1,0.4 0,0.1 0,0.2 -0.1,0.3 0,0.1 0,0.2 -0.1,0.3 0,0 0,0.2 -0.1,0.3 0,0 0,0.2 -0.1,0.3 0,0 0,0.2 0,0.2 0,0 0,0.1 0,0.2 0,0 0,0.1 0,0.2 0,0 0,0.1 0,0.2 0,0 0,0 0,0.1 0,0 0,0 0,0.1 0,0 0,0 0,0.1 0,0 0,0 0,0.1 0,0 0,0 0,0 -0.5,-0.8 -2,-0.9 -1.8,-1.9 0,-0.1 0.2,-0.2 0.3,-0.2 0.1,0 0.3,-0.2 0.4,-0.3 0.2,-0.1 0.3,-0.2 0.5,-0.3 0.2,-0.1 0.4,-0.2 0.5,-0.4 0.2,-0.1 0.4,-0.2 0.6,-0.4 0.2,-0.1 0.4,-0.3 0.6,-0.4 0.2,-0.1 0.4,-0.3 0.6,-0.4 0.2,-0.1 0.4,-0.3 0.6,-0.4 0.2,-0.1 0.4,-0.2 0.6,-0.4 0.2,-0.1 0.4,-0.2 0.7,-0.3 0.2,-0.1 0.4,-0.2 0.7,-0.3 0.2,-0.1 0.5,-0.2 0.7,-0.3 0.2,-0.1 0.5,-0.2 0.7,-0.3 0.2,0 0.5,-0.2 0.7,-0.3 0.2,0 0.5,-0.2 0.7,-0.3 0.2,0 0.5,-0.2 0.7,-0.2 0.3,0 0.5,-0.1 0.8,-0.2 0.3,0 0.5,-0.1 0.8,-0.2 0.2,0 0.5,-0.1 0.7,-0.2 0.2,0 0.5,-0.1 0.7,-0.2 0.2,0 0.5,0 0.7,-0.1 0.2,0 0.5,0 0.7,0 0.2,0 0.5,0 0.7,0 0.2,0 0.4,0 0.6,0 0.2,0 0.4,0 0.6,0 0.2,0 0.3,0 0.5,0 0.1,0 0.2,0 0.4,0 l -1.8,4.5 c -0.1,0 -0.3,0 -0.4,0 -0.2,0 -0.3,0 -0.5,0 -0.2,0 -0.4,0 -0.6,0 -0.2,0 -0.4,0 -0.6,0 -0.2,0 -0.4,0 -0.7,0 -0.2,0 -0.4,0 -0.6,0.1 -0.2,0 -0.4,0.1 -0.6,0.1 -0.2,0 -0.5,0.1 -0.7,0.2 -0.2,0 -0.5,0.1 -0.7,0.2 -0.2,0 -0.5,0.1 -0.7,0.2 -0.2,0 -0.4,0.1 -0.7,0.2 -0.2,0 -0.5,0.2 -0.7,0.2 -0.2,0 -0.5,0.2 -0.7,0.3 -0.2,0 -0.5,0.2 -0.7,0.3 -0.2,0 -0.5,0.2 -0.7,0.3 -0.2,0.1 -0.4,0.2 -0.6,0.3 -0.2,0.1 -0.4,0.2 -0.6,0.3 -0.2,0.1 -0.4,0.2 -0.6,0.4 -0.2,0.1 -0.4,0.3 -0.6,0.4 -0.2,0.1 -0.4,0.2 -0.6,0.4 -0.2,0.1 -0.4,0.3 -0.6,0.4 -0.2,0.1 -0.4,0.3 -0.6,0.4 -0.2,0.1 -0.3,0.3 -0.5,0.4 -0.2,0.1 -0.3,0.2 -0.5,0.4 -0.1,0.1 -0.3,0.2 -0.4,0.4 -0.1,0.1 -0.2,0.2 -0.3,0.3 0,0.1 -0.2,0.2 -0.3,0.3 -0.9,0.3 -2.2,-0.5 -2.3,-1.5 0,0 0,0 0,-0.1 0,0 0,0 0,-0.1 0,0 0,0 0,-0.1 0,0 0,-0.1 0,-0.2 0,0 0,-0.1 0,-0.2 0,0 0,-0.1 0,-0.2 0,0 0,-0.1 0,-0.2 0,0 0,-0.1 0,-0.2 0,0 0,-0.2 0,-0.2 0,0 0,-0.2 0.1,-0.3 0,0 0,-0.2 0.1,-0.3 0,-0.1 0,-0.2 0.1,-0.3 0,-0.1 0,-0.2 0.1,-0.3 0,-0.1 0.1,-0.3 0.2,-0.4 0,-0.1 0.1,-0.3 0.2,-0.4 0,-0.2 0.1,-0.3 0.2,-0.5 0,-0.2 0.1,-0.3 0.2,-0.5 0,-0.2 0.1,-0.3 0.2,-0.5 0,-0.2 0.1,-0.3 0.2,-0.5 0,-0.2 0.1,-0.3 0.2,-0.5 0,-0.2 0.1,-0.3 0.2,-0.5 0,-0.2 0.1,-0.3 0.2,-0.5 0,-0.2 0.1,-0.3 0.1,-0.5 0,-0.1 0,-0.3 0.1,-0.5 0,-0.2 0,-0.3 0.1,-0.5 0,-0.1 0,-0.3 0,-0.4 0,-0.1 0,-0.3 0,-0.4 0,-0.2 0,-0.3 0,-0.5 0,-0.2 0,-0.3 0,-0.5 0,-0.2 0,-0.4 0,-0.5 0,-0.2 0,-0.4 0,-0.6 0,-0.2 0,-0.4 0,-0.5 0,-0.2 0,-0.3 0,-0.5 0,-0.2 0,-0.3 0,-0.5 0,-0.2 0,-0.3 0,-0.5 0,-0.2 0,-0.3 0,-0.5 l 4.4,-2 z"
     style="overflow:visible;fill:#fdca01;stroke-width:5.1" />
</svg>
